<?xml version="1.0" standalone="no"?>
<!DOCTYPE svg PUBLIC "-//W3C//DTD SVG 20010904//EN"
 "http://www.w3.org/TR/2001/REC-SVG-20010904/DTD/svg10.dtd">
<svg version="1.0" xmlns="http://www.w3.org/2000/svg"
 width="512.000000pt" height="512.000000pt" viewBox="0 0 512.000000 512.000000"
 preserveAspectRatio="xMidYMid meet">
<metadata>
Created by potrace 1.11, written by Peter Selinger 2001-2013
</metadata>
<g transform="translate(0.000000,512.000000) scale(0.100000,-0.100000)"
fill="#000000" stroke="none">
<path d="M4456 4999 c2 -4 -3 -12 -11 -19 -8 -7 -15 -9 -15 -5 0 5 -9 0 -20
-10 -11 -10 -18 -20 -15 -23 3 -3 -3 -14 -12 -25 -10 -11 -13 -17 -7 -14 14 8
27 -20 14 -28 -6 -4 -10 -1 -10 5 0 6 -5 8 -11 4 -7 -4 -2 -13 15 -23 14 -8
26 -19 26 -24 0 -4 -4 -6 -8 -3 -4 2 -9 -5 -9 -16 -1 -12 5 -22 17 -25 12 -3
17 -12 15 -24 -2 -11 0 -17 6 -14 5 4 7 12 3 18 -3 7 6 -1 21 -18 14 -16 24
-24 20 -17 -3 6 -1 12 4 12 6 0 11 -5 11 -11 0 -5 5 -7 10 -4 6 4 7 12 3 18
-4 7 0 7 10 -1 9 -8 25 -11 38 -7 16 5 19 4 14 -5 -5 -9 -4 -11 4 -6 6 4 9 12
5 17 -3 6 2 9 12 7 21 -3 25 17 11 46 -6 12 -5 22 4 30 9 8 11 7 7 -5 -3 -8 1
-26 9 -40 l14 -24 -4 28 c-3 20 -1 27 9 23 8 -3 11 0 7 9 -3 8 -9 13 -13 10
-5 -3 -12 0 -16 6 -5 8 -3 9 5 4 10 -6 11 -3 2 13 -9 17 -8 20 7 18 9 -2 17
-10 17 -19 0 -8 3 -19 7 -22 4 -4 6 15 5 43 -1 35 -6 48 -14 45 -12 -5 -17 9
-16 43 0 6 -12 10 -30 8 -25 -3 -28 -2 -17 11 7 9 10 18 6 22 -3 3 -6 0 -6 -8
0 -12 -2 -12 -9 0 -8 13 -12 13 -27 0 -10 -8 -15 -9 -11 -3 4 8 -7 11 -37 10
-25 0 -42 -4 -40 -7z m37 -16 c-5 -12 -17 -17 -35 -14 -5 0 -8 -4 -8 -11 0 -6
-3 -8 -7 -5 -9 9 24 44 41 44 8 0 12 -6 9 -14z m20 -17 c-3 -13 1 -27 8 -31 7
-5 10 -4 6 2 -4 6 4 11 18 11 14 0 22 -4 19 -9 -3 -5 2 -6 10 -3 9 3 14 10 11
14 -3 5 3 7 12 5 12 -1 17 -10 16 -24 -2 -12 1 -20 5 -17 4 2 14 1 22 -5 10
-6 11 -9 3 -9 -7 0 -14 1 -16 3 -1 1 -10 -5 -19 -13 -11 -10 -12 -17 -5 -22 8
-5 6 -12 -5 -25 -15 -18 -21 -53 -8 -53 4 0 7 -7 7 -15 0 -8 -4 -12 -8 -9 -5
3 -18 0 -29 -6 -17 -9 -19 -8 -14 7 5 15 3 15 -12 -2 -14 -17 -16 -17 -11 -2
8 21 4 21 -33 2 -23 -12 -29 -12 -33 -1 -3 7 0 19 6 26 9 10 7 11 -10 6 -12
-4 -24 -2 -28 4 -3 6 -11 7 -17 4 -6 -4 -8 -3 -5 3 9 14 53 8 81 -10 16 -11
27 -12 40 -5 11 6 16 6 13 1 -3 -5 0 -10 7 -10 9 0 12 7 8 15 -4 12 -1 14 14
8 14 -5 16 -4 8 4 -9 9 -17 9 -32 1 -10 -6 -22 -7 -26 -4 -3 3 -6 1 -6 -6 0
-7 -5 -9 -10 -6 -8 5 -7 11 1 21 7 9 8 14 1 14 -6 0 -12 -6 -15 -12 -2 -7 -8
-9 -13 -5 -5 5 -1 15 10 23 11 8 17 14 14 14 -4 0 -15 3 -25 6 -13 4 -14 3 -5
-3 10 -8 10 -12 -3 -23 -13 -10 -15 -9 -16 6 -1 11 -1 27 0 37 2 14 -7 20 -29
19 -3 0 -12 7 -20 16 -13 14 -12 15 3 9 19 -7 23 3 7 19 -8 8 -6 15 6 25 15
12 16 12 10 -9 -7 -21 -6 -22 21 -10 15 6 37 20 48 30 24 22 23 23 18 -6z
m-75 -111 c0 -14 -5 -25 -11 -25 -6 0 -7 3 -4 7 10 9 -14 34 -26 26 -6 -3 -7
-1 -3 6 4 6 12 9 17 6 5 -4 9 -1 9 5 0 6 4 9 9 6 5 -3 9 -17 9 -31z"/>
<path d="M4588 4930 c-26 -24 -22 -35 4 -10 12 11 20 22 17 24 -2 2 -12 -4
-21 -14z"/>
<path d="M4430 4923 c0 -12 29 -27 44 -24 5 1 6 -6 2 -16 -6 -17 -5 -17 7 -1
8 10 18 14 22 10 5 -4 5 -2 2 5 -4 6 -15 10 -25 8 -9 -1 -25 4 -34 13 -10 8
-18 10 -18 5z"/>
<path d="M4508 4912 c9 -10 19 -17 21 -16 6 5 -20 34 -30 34 -5 0 -1 -8 9 -18z"/>
<path d="M4590 4899 c0 -5 5 -7 10 -4 6 3 10 8 10 11 0 2 -4 4 -10 4 -5 0 -10
-5 -10 -11z"/>
<path d="M4536 4884 c-4 -9 -4 -19 -1 -22 3 -3 5 0 5 7 0 7 4 9 10 6 6 -3 7 1
4 9 -8 20 -10 20 -18 0z"/>
<path d="M4560 4859 c-12 -9 -12 -10 4 -5 14 5 17 3 12 -11 -6 -15 -5 -16 5
-5 18 17 -1 35 -21 21z"/>
<path d="M4517 4839 c4 -13 8 -18 11 -10 2 7 -1 18 -6 23 -8 8 -9 4 -5 -13z"/>
<path d="M4563 4785 c0 -8 4 -12 9 -9 5 3 6 10 3 15 -9 13 -12 11 -12 -6z"/>
<path d="M4465 4780 c-3 -5 1 -10 9 -10 9 0 16 5 16 10 0 6 -4 10 -9 10 -6 0
-13 -4 -16 -10z"/>
<path d="M3646 4945 c-6 -16 -9 -17 -16 -5 -9 14 -14 7 -11 -13 1 -4 -8 -3
-20 4 -15 8 -19 8 -15 0 4 -6 0 -11 -9 -11 -8 0 -19 -10 -24 -23 -5 -12 -20
-29 -34 -36 -15 -8 -23 -19 -20 -27 3 -8 1 -14 -4 -14 -5 0 -8 -15 -7 -32 1
-18 -3 -39 -9 -47 -9 -12 -9 -13 1 -7 6 4 12 3 12 -1 0 -5 -6 -15 -12 -22 -10
-11 -10 -13 0 -7 8 5 12 -2 13 -21 1 -15 1 -31 0 -35 0 -5 4 -8 10 -8 8 0 7
-6 -2 -17 -12 -14 -12 -16 1 -11 12 4 16 -1 15 -22 0 -16 -5 -26 -11 -23 -7 2
-15 -1 -19 -6 -3 -6 -11 -8 -17 -5 -7 4 -8 2 -4 -5 4 -6 12 -8 18 -5 7 4 8 2
4 -4 -4 -7 -14 -12 -23 -12 -9 0 -13 -6 -10 -14 4 -10 1 -13 -9 -9 -9 3 -14
-1 -14 -11 0 -9 -11 -21 -25 -26 -14 -5 -24 -15 -23 -22 2 -7 -3 -12 -9 -13
-7 0 -13 -4 -14 -10 -2 -23 -22 -46 -35 -41 -8 3 -14 1 -14 -4 0 -6 5 -10 10
-10 6 0 5 -6 -2 -14 -9 -10 -17 -11 -26 -3 -7 6 -12 6 -10 1 4 -14 -22 -55
-31 -50 -5 3 -7 -6 -5 -19 1 -14 -2 -23 -7 -19 -5 3 -6 11 -3 17 4 7 3 8 -2 4
-5 -5 -10 -13 -10 -18 -3 -22 -5 -23 -15 -9 -10 13 -10 13 -6 0 5 -18 -17 -42
-29 -32 -5 4 -2 -2 6 -12 9 -12 10 -17 3 -12 -7 4 -21 2 -30 -4 -16 -10 -16
-11 -1 -6 12 3 15 1 12 -9 -3 -8 -13 -11 -22 -8 -9 4 -14 3 -10 -2 4 -4 -4
-17 -18 -28 -14 -10 -23 -25 -20 -32 3 -9 -2 -11 -17 -7 -20 5 -21 4 -7 -13
14 -17 13 -18 -2 -12 -12 4 -18 1 -18 -9 0 -8 -4 -12 -10 -9 -5 3 -10 -1 -10
-10 0 -9 -4 -14 -9 -11 -5 4 -15 -7 -22 -23 -7 -16 -17 -27 -21 -25 -11 7 -10
-3 3 -29 8 -19 8 -20 -3 -7 -20 22 -37 22 -33 0 3 -13 -5 -24 -23 -33 -15 -7
-26 -19 -25 -25 3 -11 -10 -17 -31 -13 -5 1 -3 -5 4 -14 11 -13 10 -14 -5 -8
-15 5 -17 3 -12 -11 5 -13 1 -19 -13 -23 -11 -3 -17 -10 -13 -16 4 -6 0 -8
-10 -4 -9 3 -19 2 -22 -3 -3 -4 0 -10 6 -12 7 -2 4 -10 -7 -18 -14 -12 -16
-12 -9 -1 6 10 4 12 -4 7 -7 -5 -10 -15 -7 -23 3 -8 2 -11 -3 -8 -5 3 -12 1
-16 -5 -4 -6 -12 -7 -18 -3 -8 4 -7 1 1 -9 10 -13 10 -18 1 -24 -8 -5 -9 -3
-4 7 8 12 6 12 -8 0 -9 -7 -17 -23 -18 -35 0 -20 -1 -21 -9 -1 -7 15 -9 16 -9
4 -1 -9 -11 -24 -23 -33 -13 -9 -17 -14 -11 -11 8 4 11 1 7 -8 -3 -8 -13 -14
-22 -13 -12 1 -17 -7 -17 -25 1 -21 -3 -25 -19 -21 -14 4 -17 2 -11 -8 6 -10
4 -12 -11 -6 -10 4 -15 4 -11 0 4 -4 1 -14 -6 -22 -10 -13 -9 -14 3 -7 13 8
13 7 1 -9 -10 -12 -16 -13 -21 -6 -5 7 -10 2 -14 -14 -3 -14 -12 -25 -18 -23
-7 1 -12 -4 -13 -12 0 -8 -6 -16 -14 -19 -9 -3 -11 0 -6 9 5 8 4 11 -1 6 -5
-5 -10 -13 -10 -18 -1 -5 -2 -14 -3 -20 0 -5 -5 -7 -11 -4 -5 3 -10 1 -10 -4
0 -14 -61 -72 -70 -66 -3 2 -7 -3 -7 -11 0 -10 4 -11 11 -4 18 18 27 11 9 -8
-10 -11 -21 -17 -25 -15 -5 2 -8 -1 -8 -7 0 -6 -4 -9 -9 -5 -5 3 -12 1 -16 -5
-3 -5 0 -10 7 -10 7 -1 0 -8 -17 -16 -16 -8 -22 -12 -13 -10 12 4 15 0 11 -9
-3 -8 -9 -12 -14 -9 -14 9 -40 -17 -56 -54 -10 -24 -19 -32 -30 -28 -13 5 -14
4 -3 -9 11 -13 10 -14 -5 -9 -12 5 -16 4 -11 -4 3 -6 2 -13 -4 -17 -6 -4 -8
-10 -6 -14 3 -4 -5 -8 -16 -8 -28 -3 -35 -12 -18 -24 12 -9 12 -10 -2 -5 -10
3 -18 1 -18 -5 0 -6 -7 -8 -16 -5 -14 6 -15 4 -4 -9 11 -13 11 -16 -1 -13 -8
2 -13 -3 -11 -11 2 -9 -3 -11 -14 -7 -14 5 -15 4 -4 -9 11 -13 10 -14 -2 -10
-8 3 -21 -2 -29 -12 -13 -16 -12 -17 3 -5 12 10 18 10 24 1 4 -7 3 -9 -4 -5
-6 3 -16 -2 -22 -13 -7 -13 -16 -18 -27 -14 -11 4 -14 3 -9 -5 4 -7 2 -12 -3
-12 -6 0 -11 -7 -11 -16 0 -9 -5 -12 -12 -8 -8 5 -9 2 -5 -10 6 -14 4 -15 -16
-5 -20 11 -21 11 -8 -4 12 -15 11 -17 -5 -17 -16 0 -17 -2 -4 -11 12 -9 11
-10 -7 -6 -14 3 -20 1 -17 -7 2 -6 -3 -20 -12 -31 -8 -11 -12 -14 -8 -6 5 9 3
12 -4 7 -7 -4 -12 -13 -12 -21 0 -7 -7 -16 -16 -19 -9 -3 -12 -11 -8 -18 4 -7
4 -10 0 -6 -10 8 -47 -23 -40 -34 3 -4 -3 -5 -13 -1 -16 6 -17 5 -3 -12 8 -10
10 -16 3 -12 -16 10 -43 -2 -37 -18 3 -7 -4 -15 -16 -18 -14 -4 -19 -10 -14
-18 5 -9 2 -10 -9 -6 -10 3 -17 2 -17 -2 0 -5 6 -12 13 -14 7 -3 4 -6 -6 -6
-12 -1 -16 -5 -11 -13 5 -8 0 -7 -11 2 -11 9 -16 10 -11 3 8 -15 -4 -41 -19
-42 -5 0 -11 -9 -13 -21 -2 -11 -8 -20 -13 -20 -6 0 -7 5 -3 12 4 7 3 8 -4 4
-7 -4 -12 -13 -12 -21 0 -8 -5 -17 -12 -21 -7 -5 -8 -3 -3 6 6 9 4 11 -4 6 -7
-5 -10 -13 -8 -20 5 -13 -18 -38 -27 -29 -3 4 -6 0 -6 -7 0 -7 -3 -10 -7 -7
-12 13 -34 -15 -23 -28 8 -10 4 -14 -17 -20 -21 -5 -24 -8 -12 -16 14 -8 12
-10 -13 -13 -7 -1 -12 -7 -11 -14 3 -11 -10 -16 -29 -13 -5 0 -7 -2 -7 -7 4
-23 -3 -41 -14 -37 -7 3 -18 -8 -25 -25 -8 -17 -18 -27 -25 -23 -6 4 -8 0 -4
-10 4 -11 2 -14 -9 -10 -8 3 -14 -1 -14 -10 0 -9 -5 -19 -12 -23 -7 -4 -8 -3
-4 4 4 7 2 12 -3 12 -6 0 -11 -12 -11 -27 0 -22 -2 -25 -10 -13 -9 13 -14 7
-11 -12 0 -5 -4 -8 -10 -8 -5 0 -7 -5 -3 -12 4 -6 3 -8 -3 -5 -5 4 -16 -5 -24
-19 -7 -15 -24 -30 -37 -35 -16 -6 -22 -15 -18 -25 3 -8 2 -12 -4 -9 -6 3 -10
1 -10 -4 0 -6 -7 -11 -15 -11 -9 0 -12 -6 -8 -17 5 -13 2 -15 -11 -10 -9 4
-15 3 -11 -2 3 -5 1 -12 -5 -16 -6 -4 -8 -11 -4 -16 3 -5 2 -9 -3 -8 -19 3
-34 -2 -29 -10 3 -5 -4 -11 -15 -14 -14 -4 -18 -10 -13 -18 5 -9 2 -10 -9 -6
-10 3 -17 2 -17 -2 0 -5 6 -12 13 -14 7 -3 5 -6 -5 -6 -10 -1 -18 -9 -19 -18
0 -11 -3 -13 -6 -5 -2 6 -9 12 -14 12 -4 0 -6 -6 -3 -14 3 -7 -2 -16 -11 -20
-9 -3 -13 -10 -10 -16 6 -9 -8 -15 -29 -11 -5 1 -3 -5 4 -14 7 -9 9 -15 4 -14
-5 1 -18 1 -28 0 -20 -1 -20 -1 0 -16 10 -8 15 -15 9 -14 -5 1 -19 1 -30 0
-15 -1 -17 -3 -7 -10 10 -6 9 -10 -7 -14 -12 -3 -20 -11 -19 -19 2 -7 -4 -12
-14 -10 -12 2 -16 -2 -12 -12 3 -8 1 -17 -5 -21 -6 -3 -11 0 -12 7 0 7 -4 3
-9 -9 -5 -13 -17 -23 -25 -23 -9 0 -13 -4 -10 -10 3 -5 1 -18 -4 -27 -6 -10
-11 -12 -11 -5 0 6 -4 12 -9 12 -5 0 -7 -10 -3 -22 4 -15 2 -19 -7 -14 -8 5
-14 0 -18 -13 -3 -11 -9 -18 -14 -15 -5 3 -9 0 -9 -5 0 -6 5 -11 12 -11 6 0 8
-3 5 -6 -4 -4 -15 -1 -24 7 -10 7 -15 9 -11 5 4 -5 0 -15 -10 -23 -11 -10 -12
-12 -2 -8 9 4 7 0 -3 -9 -11 -8 -26 -12 -35 -10 -10 3 -6 -2 8 -11 14 -9 17
-14 8 -11 -10 3 -18 1 -18 -5 0 -6 -6 -7 -13 -3 -8 5 -7 2 2 -9 12 -15 12 -17
-3 -11 -10 4 -16 1 -16 -9 0 -9 -5 -19 -12 -23 -7 -4 -8 -3 -4 4 5 8 2 10 -9
6 -12 -5 -13 -9 -4 -20 6 -8 9 -15 5 -15 -3 -1 -9 -2 -13 -3 -18 -3 -33 -18
-28 -27 4 -5 2 -9 -4 -9 -5 0 -12 6 -15 13 -4 6 -4 2 -2 -11 3 -17 1 -22 -9
-19 -8 4 -11 -1 -8 -13 3 -12 -3 -22 -19 -30 -21 -10 -21 -10 -5 3 9 8 17 18
17 22 0 5 -9 0 -20 -10 -16 -15 -18 -21 -7 -33 8 -11 8 -14 0 -9 -6 4 -14 3
-18 -3 -4 -6 -11 -8 -16 -4 -5 3 -9 2 -8 -3 5 -27 -3 -53 -16 -53 -8 0 -15 -5
-15 -11 0 -5 6 -7 12 -4 7 4 5 0 -4 -8 -10 -8 -18 -19 -18 -26 0 -6 -7 -11
-16 -11 -14 0 -15 -2 -3 -17 11 -13 11 -15 1 -9 -10 6 -13 3 -10 -12 2 -11 -6
-30 -17 -43 -11 -12 -14 -19 -8 -15 9 5 11 2 7 -8 -3 -9 -11 -13 -18 -9 -6 4
-4 -2 4 -12 14 -17 13 -18 -4 -12 -16 6 -17 5 -6 -8 10 -12 10 -15 -1 -15 -9
0 -10 -3 -4 -8 6 -4 11 -13 13 -21 3 -12 0 -12 -11 -2 -13 10 -14 7 -7 -23 5
-24 4 -34 -2 -30 -6 4 -8 1 -6 -7 3 -8 12 -13 19 -11 8 1 3 -7 -11 -18 -19
-15 -21 -20 -8 -20 12 0 15 -6 10 -22 -3 -13 -10 -26 -16 -30 -6 -4 0 -8 14
-8 15 0 20 -3 13 -8 -15 -10 -13 -52 3 -52 7 0 10 -8 7 -20 -3 -12 0 -20 6
-20 7 0 10 -4 6 -9 -3 -6 3 -14 12 -20 16 -9 15 -11 -7 -12 -17 -1 -20 -3 -7
-6 10 -3 14 -9 10 -16 -4 -7 1 -6 10 2 15 12 17 12 11 -2 -3 -8 3 -28 13 -43
14 -22 15 -26 3 -20 -8 4 -7 1 3 -7 19 -16 24 -32 5 -21 -7 4 -8 3 -4 -4 4 -6
14 -8 23 -5 13 5 15 2 11 -15 -4 -14 -2 -19 7 -16 7 3 22 -11 34 -32 12 -20
24 -34 28 -31 6 7 27 -12 36 -33 3 -9 6 -10 6 -3 1 14 31 6 31 -9 0 -5 -4 -6
-10 -3 -5 3 -10 1 -10 -4 0 -14 13 -14 27 0 8 8 11 6 10 -7 -1 -10 4 -19 11
-20 6 -1 17 -2 23 -3 5 0 7 -7 3 -13 -5 -8 0 -7 11 2 15 12 17 12 10 1 -6 -11
-4 -13 8 -8 9 3 19 1 23 -5 4 -6 3 -8 -4 -4 -6 3 -14 1 -18 -6 -4 -7 -4 -10 1
-6 4 4 16 3 26 -3 15 -8 18 -6 13 8 -5 16 -4 16 8 2 7 -9 20 -15 29 -14 9 2
23 -2 30 -7 11 -8 10 -9 -4 -4 -11 4 -16 2 -12 -5 4 -6 14 -8 22 -5 9 4 22 -1
29 -11 13 -17 14 -17 7 2 -6 17 -4 18 8 8 9 -7 20 -9 29 -3 9 5 19 5 26 -1 7
-6 21 -6 38 1 18 6 26 6 26 -1 0 -6 4 -8 10 -4 5 3 6 13 3 23 -6 16 -6 16 11
-1 19 -18 31 -23 22 -8 -11 17 19 19 39 2 18 -15 19 -15 7 0 -11 14 -9 17 15
22 16 3 32 0 36 -6 5 -7 5 -1 2 12 -5 16 -4 21 4 16 7 -4 18 -2 25 4 8 7 18
10 22 9 12 -4 55 27 49 34 -3 3 1 8 10 12 9 3 13 2 10 -3 -3 -5 -1 -13 5 -16
6 -4 10 -3 9 2 -3 20 2 34 11 28 6 -3 10 1 10 10 0 10 6 15 13 12 12 -4 45 22
40 33 -2 3 1 5 6 5 5 0 13 4 18 9 5 5 2 6 -6 1 -9 -5 -12 -4 -7 3 4 7 17 12
29 12 18 0 19 2 7 10 -10 7 -11 10 -2 11 6 1 17 3 22 4 6 1 13 3 18 4 4 1 1 5
-7 10 -11 7 -6 12 20 19 19 6 28 11 22 11 -21 2 -15 18 8 24 12 3 18 10 14 16
-4 7 3 11 17 11 18 0 20 2 8 10 -10 7 -11 10 -2 11 27 3 31 4 38 11 4 5 2 8
-5 8 -7 0 -9 5 -6 10 4 6 11 8 16 5 5 -4 9 -1 9 5 0 6 4 9 9 6 5 -4 7 3 4 13
-4 16 -1 19 19 14 18 -4 20 -3 8 6 -13 9 -12 12 8 17 24 7 29 19 10 28 -7 4
-3 4 10 2 18 -3 22 -1 18 10 -3 9 -1 12 4 9 6 -3 10 -1 10 5 0 6 5 8 10 5 9
-6 14 8 11 28 0 4 9 7 22 8 12 0 17 3 10 6 -18 7 7 32 27 26 9 -3 7 2 -5 12
l-20 17 20 -4 c14 -2 19 2 17 12 -3 12 -1 13 9 2 7 -6 18 -12 23 -12 6 0 5 4
-3 9 -7 5 -10 14 -7 20 4 6 12 8 18 5 8 -5 9 -1 5 10 -4 9 -3 15 2 12 4 -3 17
1 27 9 16 13 17 14 2 9 -10 -3 -18 -3 -18 0 0 4 14 12 31 18 19 7 27 13 19 18
-8 5 -5 9 9 13 12 3 21 13 21 22 0 9 5 13 10 10 6 -3 10 1 10 9 0 9 7 16 15
16 13 0 19 12 16 32 0 4 7 4 16 1 13 -5 15 -2 9 12 -4 11 -4 16 0 13 3 -4 13
0 21 8 8 8 19 12 24 9 5 -4 6 1 3 9 -3 9 3 19 16 26 14 7 19 17 16 27 -6 14
-4 14 11 2 15 -13 16 -12 11 8 -5 17 -2 21 13 18 10 -2 18 -1 16 3 -4 12 41
51 49 44 5 -4 2 1 -6 11 -12 17 -12 18 5 15 10 -1 20 3 23 11 3 9 0 11 -8 6
-9 -5 -11 -4 -6 3 4 7 19 12 34 12 19 0 23 3 13 9 -10 7 -11 12 -1 27 9 15 10
16 6 2 -3 -12 -1 -15 9 -12 8 3 11 13 8 21 -4 10 -2 14 5 9 10 -6 25 8 28 27
1 4 2 10 3 15 1 4 6 0 11 -8 8 -12 10 -10 10 8 0 13 4 20 10 17 6 -3 10 -1 10
5 0 6 5 8 13 4 7 -5 7 -2 -2 10 -12 15 -12 17 0 14 8 -2 13 2 12 9 -2 7 3 10
11 7 10 -4 16 3 18 18 2 16 9 23 24 22 17 -1 20 3 16 19 -4 16 -2 19 11 14 19
-7 32 8 32 38 0 13 6 19 18 17 12 -2 17 4 18 20 0 22 1 22 9 3 l9 -20 1 20 c2
11 2 23 1 27 0 4 7 4 16 1 11 -4 14 -3 9 5 -4 7 -1 12 7 12 8 0 21 8 28 18 13
15 12 16 -3 4 -11 -9 -18 -10 -23 -2 -4 6 -3 9 2 8 4 -1 24 8 43 21 19 13 27
21 18 17 -28 -9 -21 3 8 14 15 6 22 14 18 22 -4 6 -3 8 3 5 11 -7 31 10 32 28
1 6 7 10 14 10 6 0 12 7 12 15 0 8 7 15 15 15 8 0 14 8 14 17 -1 11 5 15 17
13 12 -2 16 1 13 10 -3 7 -1 16 5 20 6 3 11 0 11 -7 0 -10 3 -9 10 2 5 9 5 19
-1 26 -7 8 -6 15 2 20 8 4 9 3 5 -4 -4 -7 -1 -12 9 -12 12 0 15 5 11 17 -4 10
-4 15 -1 11 3 -3 17 4 29 16 13 11 36 31 50 43 15 13 25 27 21 33 -3 5 -1 10
5 10 6 0 8 5 5 10 -3 5 1 10 10 10 10 0 13 5 9 13 -5 8 -2 7 9 -2 15 -12 17
-12 12 1 -4 9 1 18 10 22 9 3 13 10 10 16 -4 6 1 7 11 3 13 -5 15 -3 9 7 -6
10 -4 12 10 6 16 -6 16 -4 4 11 -9 11 -10 14 -1 9 7 -4 12 -2 12 4 0 6 4 9 9
5 6 -3 8 4 6 16 -4 18 -2 19 12 7 9 -7 14 -8 10 -2 -3 6 3 17 14 24 10 8 19
24 19 35 0 14 3 16 9 7 6 -10 11 -9 22 4 12 15 12 17 0 9 -10 -5 -12 -4 -7 3
4 7 14 12 22 12 9 0 12 5 8 12 -5 8 -2 9 10 5 10 -4 15 -3 11 3 -3 6 1 13 10
16 13 6 14 8 3 15 -9 6 -6 9 10 9 15 0 21 4 16 12 -5 8 -2 9 11 4 15 -5 16 -4
5 9 -7 9 -9 15 -4 14 25 -4 36 2 31 20 -3 14 0 17 14 14 15 -4 18 -2 12 13 -6
16 -4 17 9 6 13 -10 15 -9 12 13 -2 23 0 24 14 13 12 -10 14 -10 8 0 -4 6 -2
12 3 12 6 0 10 6 9 13 -2 6 3 11 10 9 6 -1 12 5 12 13 0 8 6 15 14 15 8 0 18
9 21 21 4 12 12 18 21 15 11 -4 12 -1 5 12 -8 14 -5 18 10 19 12 1 17 -3 13
-9 -4 -7 -2 -8 5 -4 9 6 9 11 -1 24 -10 12 -10 14 0 8 6 -4 12 -2 12 3 0 6 7
11 16 11 13 0 14 3 5 14 -9 10 -8 13 6 12 10 0 19 3 20 7 1 5 10 15 20 24 11
9 12 12 3 8 -8 -4 -6 0 4 9 10 8 23 13 27 10 5 -3 6 2 3 11 -5 11 0 18 15 22
12 3 21 13 21 24 0 10 5 21 12 25 6 4 8 3 4 -4 -3 -6 -2 -13 4 -17 6 -4 10 7
11 27 0 18 3 27 6 21 2 -7 9 -13 14 -13 6 0 7 5 4 11 -4 5 12 28 35 50 22 21
38 44 35 49 -4 6 -3 10 2 9 22 -4 33 3 33 19 0 14 2 15 10 2 8 -12 10 -10 10
10 0 20 2 22 10 10 8 -13 10 -12 10 4 0 11 5 16 14 13 10 -4 12 0 8 15 -3 14
-1 19 6 14 11 -6 16 5 13 26 0 4 6 5 14 2 9 -4 15 0 15 10 0 10 5 13 17 9 10
-4 14 -2 10 4 -4 6 -1 17 6 25 7 7 21 24 31 38 11 15 16 18 12 7 -3 -11 -2
-16 4 -12 6 3 10 13 10 21 0 8 11 19 25 24 14 5 25 12 25 15 0 4 -4 3 -10 0
-5 -3 -10 -1 -10 4 0 6 8 11 18 11 26 0 34 11 20 27 -9 11 -7 12 7 7 13 -5 16
-4 11 4 -4 7 -2 12 4 12 7 0 10 6 7 14 -4 10 1 13 19 11 13 -1 27 2 31 8 3 6
1 7 -4 4 -6 -4 -13 0 -16 8 -4 9 -1 12 9 8 7 -3 14 0 14 6 0 6 7 11 15 11 8 0
15 7 15 16 0 9 5 12 12 8 7 -5 9 -2 6 7 -3 8 3 25 13 38 11 13 19 20 19 15 0
-4 -8 -16 -17 -27 -18 -19 -17 -19 5 -6 19 12 24 22 21 46 -1 10 30 25 40 19
5 -4 7 4 4 16 -4 19 -3 20 6 8 10 -14 15 -8 12 13 -1 4 10 12 24 17 16 6 23
14 19 25 -5 11 -2 14 10 9 12 -5 19 0 23 15 3 11 10 18 15 15 5 -3 8 2 6 12
-2 13 2 18 14 16 9 -1 20 3 24 9 4 7 3 9 -4 5 -6 -3 -14 -1 -18 5 -4 8 -3 9 4
5 7 -4 12 -3 12 3 0 6 8 7 17 4 13 -5 15 -2 10 11 -6 14 -3 17 8 12 9 -3 13
-2 10 4 -3 6 0 10 7 10 10 0 9 3 -1 9 -12 8 -9 11 13 17 20 5 24 9 14 15 -12
8 -6 11 19 8 4 0 10 9 15 20 4 13 13 19 23 15 8 -3 15 -1 15 5 0 6 5 11 11 11
5 0 7 -4 4 -10 -3 -5 -2 -10 4 -10 5 0 12 6 14 13 4 10 6 10 6 0 1 -7 10 -13
22 -13 14 0 19 5 16 14 -4 10 -1 13 8 9 8 -3 13 -9 10 -13 -3 -5 4 -8 15 -7
11 1 20 7 20 14 0 7 5 13 11 13 5 0 7 -6 3 -12 -4 -7 3 -4 16 7 13 11 20 14
16 7 -7 -11 -4 -11 12 -1 12 7 18 17 16 21 -3 4 2 8 11 8 9 0 13 5 10 10 -3 6
4 14 17 19 13 6 17 10 10 10 -10 1 -10 4 2 16 8 8 13 24 11 36 -2 11 2 22 10
26 8 3 12 9 9 14 -3 5 -10 6 -16 3 -7 -4 -8 -2 -4 5 4 6 11 9 16 6 5 -3 8 8 8
25 -1 17 -5 33 -9 36 -5 3 -6 -3 -2 -13 3 -10 3 -15 -2 -11 -8 8 -18 59 -17
96 0 15 -5 22 -13 18 -9 -3 -11 2 -7 16 3 14 1 19 -6 14 -7 -4 -10 1 -7 14 3
14 -1 20 -13 20 -15 0 -15 2 -2 10 10 6 11 10 3 10 -7 0 -13 7 -13 15 0 9 -7
18 -15 21 -8 4 -12 10 -9 15 3 5 0 9 -5 9 -6 0 -11 5 -11 11 0 5 5 7 12 3 7
-5 8 -3 4 5 -5 7 -19 16 -32 21 -14 6 -22 15 -18 23 3 8 -2 17 -10 20 -9 4
-16 14 -16 24 0 15 -2 16 -10 3 -8 -12 -10 -10 -10 9 0 16 -4 21 -14 18 -10
-4 -13 -1 -9 9 3 7 0 14 -7 14 -7 0 -10 7 -7 14 4 10 1 13 -9 9 -10 -3 -14 2
-14 18 0 19 -2 21 -10 9 -8 -13 -10 -12 -10 4 0 13 -5 16 -16 12 -15 -6 -15
-4 -3 11 12 15 12 16 -3 10 -13 -5 -18 -1 -18 12 0 11 -9 21 -21 24 -13 4 -18
10 -13 18 4 7 3 10 -4 5 -6 -3 -16 3 -22 14 -6 11 -18 20 -26 20 -11 0 -14 5
-10 16 6 14 4 15 -9 4 -9 -7 -15 -9 -13 -4 4 16 -25 52 -39 47 -7 -3 -16 2
-19 11 -3 9 -12 16 -19 16 -8 0 -17 5 -21 12 -5 7 -3 8 6 3 9 -5 11 -4 6 3 -4
7 -16 12 -28 12 -13 0 -18 5 -15 14 4 10 0 12 -15 8 -16 -4 -19 -2 -13 8 6 10
4 12 -8 7 -11 -4 -17 -1 -17 8 0 9 -9 15 -21 15 -14 0 -19 5 -16 14 4 10 1 13
-8 10 -16 -7 -48 20 -37 30 3 4 -1 4 -11 0 -9 -3 -14 -11 -10 -18 3 -6 2 -7
-3 -3 -5 5 -9 14 -9 20 0 7 -5 12 -12 12 -7 0 -21 7 -31 16 -10 9 -26 15 -36
13 -12 -2 -16 2 -12 12 3 7 2 13 -2 13 -27 -4 -62 3 -57 11 9 14 -8 13 -23 -2
-7 -7 -12 -8 -12 -2 0 6 5 15 10 20 13 13 -18 13 -38 0 -6 -4 -12 -3 -12 3 0
5 -11 8 -24 7 -17 -2 -23 1 -19 10 3 8 -1 14 -11 14 -10 0 -13 -6 -9 -17 5
-16 4 -17 -8 -2 -21 24 -59 31 -66 11 -6 -13 -7 -13 -13 3 -6 18 -7 18 -14 0z
m288 -183 c3 -5 -1 -9 -9 -9 -8 0 -12 4 -9 9 3 4 7 8 9 8 2 0 6 -4 9 -8z m46
-47 c0 -1 -12 -2 -26 -2 -17 0 -22 2 -13 7 10 7 39 3 39 -5z m17 -19 c-8 -16
-14 -20 -19 -13 -4 6 0 15 8 20 8 5 11 13 8 19 -4 6 -3 8 4 5 7 -5 7 -14 -1
-31z m62 -2 c-10 -13 -8 -14 14 -10 15 3 27 0 27 -5 0 -5 5 -8 11 -6 6 1 14
-5 16 -13 4 -12 3 -13 -5 -1 -7 10 -9 5 -9 -17 2 -28 12 -36 12 -9 0 7 12 12
27 13 15 1 25 -3 22 -8 -3 -4 6 -12 20 -18 14 -5 26 -12 26 -15 0 -4 -5 -3
-12 1 -7 4 -8 3 -4 -5 4 -6 15 -10 24 -9 11 2 17 -3 16 -13 -1 -12 4 -15 19
-11 14 3 18 1 13 -6 -4 -7 -2 -12 4 -12 6 0 9 -4 6 -8 -2 -4 5 -9 16 -9 27 -2
30 -7 31 -40 0 -15 2 -22 4 -15 3 6 12 12 21 12 15 0 15 -2 2 -10 -13 -9 -13
-10 0 -11 8 -1 18 -1 23 0 4 0 7 -6 7 -15 0 -9 -5 -12 -12 -8 -7 5 -8 3 -4 -5
5 -7 15 -10 23 -7 11 5 13 2 9 -10 -5 -14 -4 -15 9 -4 13 11 14 10 9 -3 -3 -9
-1 -24 6 -34 9 -16 10 -15 5 7 l-5 25 12 -25 c15 -30 39 -50 52 -43 5 4 6 1 2
-6 -4 -6 -12 -9 -17 -6 -5 4 -9 1 -9 -6 0 -6 8 -9 18 -7 11 3 19 0 19 -8 0 -7
-3 -11 -7 -9 -3 2 -6 -6 -7 -18 0 -12 1 -16 4 -9 5 14 43 17 43 2 0 -5 -8 -7
-17 -4 -10 2 -8 -1 5 -7 12 -7 22 -16 22 -21 0 -5 -9 -4 -20 2 -16 8 -18 8
-14 -4 3 -9 11 -14 16 -13 6 1 13 -4 16 -12 3 -10 0 -11 -9 -5 -11 6 -12 5 -2
-8 7 -8 10 -18 7 -21 -4 -4 3 -5 15 -2 25 5 28 -10 5 -19 -9 -4 -14 -9 -11
-12 3 -3 16 -1 29 6 20 10 21 10 6 -3 -10 -8 -14 -18 -10 -22 4 -4 -4 -2 -18
5 -14 8 -26 13 -27 12 -2 -1 -9 -2 -15 -2 -9 0 -8 4 2 10 13 8 12 10 -2 10
-16 0 -20 6 -17 26 0 4 -12 15 -28 25 -15 10 -23 19 -17 19 5 0 16 -6 24 -12
12 -11 12 -10 1 5 -7 9 -19 17 -27 17 -18 0 -34 32 -30 57 3 12 -1 20 -10 20
-9 0 -13 -6 -9 -16 3 -9 -3 -5 -14 9 -14 17 -17 28 -9 37 15 18 3 29 -31 27
-28 -2 -30 0 -19 20 10 19 10 20 -5 7 -15 -12 -17 -11 -17 3 0 10 -4 14 -10
11 -13 -8 -13 18 0 31 6 6 0 10 -17 12 -15 1 -32 7 -38 13 -7 7 -4 8 10 4 11
-3 5 2 -13 10 -18 9 -37 13 -41 10 -5 -2 -8 3 -7 13 0 10 -5 16 -13 14 -9 -2
-11 3 -7 14 4 12 2 15 -9 10 -8 -3 -15 -1 -15 4 0 6 -5 10 -11 10 -5 0 -7 -5
-3 -12 4 -7 3 -8 -4 -4 -6 4 -9 13 -5 21 3 9 -1 15 -11 15 -9 0 -16 7 -16 15
0 8 -6 12 -14 9 -17 -7 -26 27 -14 52 9 19 9 19 -6 0 -8 -10 -13 -23 -10 -27
3 -5 0 -9 -6 -9 -7 0 -10 6 -7 14 4 11 -2 13 -26 10 -21 -2 -27 0 -18 5 7 5
11 13 7 19 -3 5 1 15 9 22 8 7 15 9 15 4 0 -4 5 -3 12 4 16 16 32 3 17 -14z
m-326 -44 c4 0 5 5 1 12 -4 7 -3 8 4 4 6 -4 9 -13 5 -21 -7 -19 -6 -19 -29 8
-10 12 -12 16 -4 10 8 -7 18 -13 23 -13z m-23 -30 c0 -5 -2 -10 -4 -10 -3 0
-8 5 -11 10 -3 6 -1 10 4 10 6 0 11 -4 11 -10z m178 -45 c-3 -3 -9 2 -12 12
-6 14 -5 15 5 6 7 -7 10 -15 7 -18z m-143 6 c3 -5 2 -12 -3 -15 -5 -3 -9 1 -9
9 0 17 3 19 12 6z m278 -77 c-5 -13 -2 -15 18 -9 23 7 24 7 4 -9 -19 -15 -18
-15 20 -17 22 -1 32 -3 23 -6 -21 -5 -23 -19 -6 -29 7 -4 8 -3 4 4 -14 22 25
12 49 -13 14 -13 25 -21 25 -18 0 4 6 -2 14 -12 8 -11 12 -23 10 -27 -2 -4 1
-10 7 -14 8 -4 9 -3 5 4 -4 7 -1 12 8 12 9 0 13 -6 10 -14 -4 -11 0 -13 18 -9
22 5 22 5 5 -9 -18 -14 -18 -14 0 -29 17 -13 17 -13 3 6 -14 18 -13 19 1 8 9
-7 19 -10 23 -6 4 4 4 0 0 -10 -4 -12 -1 -17 10 -17 9 0 16 -4 16 -8 0 -5 13
-22 29 -38 16 -15 26 -34 24 -42 -3 -7 0 -12 8 -10 15 3 15 -5 4 -34 -4 -11
-3 -18 5 -18 6 0 9 4 5 9 -3 5 -1 13 5 16 6 4 9 1 8 -7 -2 -7 3 -12 10 -10 8
1 11 -2 7 -8 -3 -5 0 -10 7 -10 8 0 6 -5 -4 -11 -10 -5 -18 -15 -18 -22 0 -7
4 -6 10 3 8 13 11 12 24 -5 9 -11 16 -24 16 -29 0 -6 -6 -1 -14 10 -14 18 -16
18 -32 2 -14 -14 -15 -20 -5 -32 9 -11 9 -16 0 -22 -7 -4 -9 -3 -6 3 4 6 -1
17 -10 24 -14 12 -15 11 -8 -11 l8 -25 -22 25 c-21 23 -22 24 -16 3 3 -12 1
-24 -5 -28 -6 -4 -11 -1 -9 6 3 26 -1 40 -10 34 -5 -3 -8 -16 -5 -30 2 -13 0
-26 -6 -30 -6 -4 -7 1 -3 11 4 12 3 15 -5 10 -7 -4 -12 -3 -12 3 0 11 -19 9
-39 -3 -10 -6 -12 -5 -7 2 4 7 2 12 -3 12 -6 0 -10 9 -8 20 4 23 17 39 17 21
0 -8 8 -10 23 -7 l22 6 -22 -11 c-13 -7 -23 -16 -23 -21 0 -5 14 0 30 12 17
12 30 26 30 33 0 6 7 2 15 -9 15 -19 15 -19 8 0 -5 15 -3 18 10 13 9 -3 16 -3
16 1 -3 19 2 23 16 12 9 -8 15 -8 15 -2 0 6 -3 12 -7 15 -5 2 -3 3 3 1 6 -1
11 4 11 12 0 12 -4 11 -24 -2 -18 -11 -24 -12 -22 -2 3 27 -1 48 -11 48 -7 0
-7 -6 0 -20 7 -14 7 -20 0 -20 -5 0 -10 4 -10 9 0 5 -8 12 -17 16 -11 4 -7 -5
11 -24 31 -32 21 -45 -10 -14 -16 16 -16 16 -9 -7 7 -22 6 -23 -9 -11 -10 9
-16 10 -16 2 0 -6 5 -11 10 -11 6 0 10 -5 10 -10 0 -7 -6 -7 -19 -1 -10 6 -21
8 -24 5 -3 -3 -8 -1 -12 5 -3 6 1 11 10 11 12 0 15 5 11 16 -5 12 -2 15 10 10
13 -5 15 -1 12 19 -3 13 -2 23 1 20 16 -9 35 17 37 52 3 37 3 37 -11 13 -9
-17 -10 -29 -3 -37 7 -9 4 -11 -12 -8 -13 2 -25 7 -28 10 -3 3 -14 -2 -24 -12
-17 -16 -18 -15 -15 5 4 24 17 42 17 23 0 -7 5 -9 10 -6 14 9 12 24 -2 21 -23
-3 -38 -17 -32 -28 4 -6 1 -9 -7 -6 -8 3 -14 10 -14 17 0 6 -6 15 -13 20 -8 5
-13 11 -13 15 3 19 0 27 -8 21 -5 -3 -12 -1 -16 4 -3 6 3 8 15 6 11 -2 22 0
25 5 3 5 -10 8 -29 7 -26 -2 -32 -5 -24 -14 7 -9 7 -13 -1 -14 -26 -3 -30 -4
-38 -12 -4 -5 -3 -7 2 -5 6 2 10 -1 10 -7 0 -5 -4 -9 -10 -7 -5 1 -1 -4 9 -13
10 -8 22 -12 26 -10 16 10 21 -30 6 -41 -17 -12 -22 -29 -6 -19 6 3 10 -1 10
-10 0 -9 -4 -13 -10 -10 -5 3 -10 4 -10 1 0 -3 9 -10 19 -16 18 -9 19 -7 17
45 -2 37 1 52 8 48 6 -4 3 3 -7 14 -16 19 -14 33 5 33 5 0 6 -5 3 -10 -3 -6 1
-13 9 -16 9 -3 14 -10 11 -14 -3 -5 -1 -11 5 -15 5 -3 10 -11 10 -17 0 -7 -4
-7 -13 0 -10 9 -13 6 -13 -13 0 -20 2 -22 15 -12 12 10 13 9 6 -2 -5 -10 -4
-12 4 -7 6 4 9 12 6 17 -4 5 -1 9 4 9 14 0 14 -30 1 -31 -5 -1 -14 -3 -20 -4
-5 -1 -15 -3 -22 -4 -21 -2 0 -13 32 -17 19 -2 29 0 25 6 -3 6 -1 10 4 10 15
0 14 -15 -3 -29 -8 -7 -13 -21 -11 -32 3 -13 -2 -19 -14 -19 -22 0 -44 23 -33
36 4 4 0 3 -9 -4 -13 -10 -19 -10 -28 1 -6 8 -8 17 -4 20 3 4 -1 7 -10 7 -9 0
-19 5 -23 12 -5 7 -3 8 6 3 9 -6 11 -4 5 5 -6 10 -11 9 -23 -6 -12 -15 -14
-16 -9 -2 4 11 -1 19 -13 23 -11 3 -19 9 -19 13 4 25 -2 35 -13 24 -17 -17
-33 -15 -19 2 9 10 7 17 -6 27 -15 12 -16 12 -9 -1 4 -8 0 -6 -9 5 -9 11 -20
19 -25 18 -5 -2 -7 4 -4 11 10 26 -14 55 -41 50 -20 -3 -24 -1 -22 13 1 10 7
25 12 33 7 11 1 10 -20 -4 -24 -16 -27 -16 -16 -3 11 14 11 17 0 17 -9 0 -8 3
3 13 8 6 21 21 28 32 7 13 10 14 6 3 -2 -9 2 -19 10 -22 16 -6 14 -37 -5 -60
-12 -14 -12 -16 3 -10 18 7 17 6 21 51 1 18 -1 30 -6 27 -4 -2 -7 8 -5 23 1
16 8 27 15 25 7 -1 11 5 9 15 -2 13 3 17 18 15 12 -1 27 5 35 15 13 16 12 17
-3 4 -10 -7 -18 -11 -18 -7 0 3 -1 9 -2 13 -2 3 5 7 16 9 10 1 23 7 29 13 15
15 17 14 10 -5z m-484 -21 c-6 -7 -17 -13 -23 -12 -7 0 -6 2 2 6 6 2 10 8 8
12 -3 4 1 8 9 8 11 0 12 -4 4 -14z m-32 -43 c-2 -11 -7 -23 -12 -27 -4 -5 -5
-2 -1 5 5 7 1 12 -11 13 -16 1 -16 2 -1 6 11 3 15 10 11 20 -4 11 -2 14 5 9 7
-4 10 -16 9 -26z m783 16 c0 -3 -4 -8 -10 -11 -5 -3 -10 -1 -10 4 0 6 5 11 10
11 6 0 10 -2 10 -4z m-830 -41 c0 -2 -10 -9 -22 -15 -22 -11 -22 -10 -4 4 21
17 26 19 26 11z m6 -23 c-17 -16 -18 -16 -5 5 7 12 15 20 18 17 3 -2 -3 -12
-13 -22z m399 -4 c5 4 5 1 1 -6 -6 -10 -11 -10 -22 -1 -8 6 -14 14 -14 16 0 3
6 0 13 -6 8 -6 18 -7 22 -3z m-453 -23 c0 -5 -5 -10 -12 -11 -7 -2 -6 -1 1 3
8 4 7 8 -2 15 -11 8 -11 9 -1 6 8 -2 14 -8 14 -13z m38 -6 c0 -6 -4 -7 -10 -4
-5 3 -10 11 -10 16 0 6 5 7 10 4 6 -3 10 -11 10 -16z m930 11 c0 -5 -5 -10
-11 -10 -5 0 -7 5 -4 10 3 6 8 10 11 10 2 0 4 -4 4 -10z m-990 -35 c11 -13 10
-14 -4 -9 -9 3 -16 10 -16 15 0 13 6 11 20 -6z m46 3 c5 -7 3 -8 -6 -3 -10 6
-12 4 -6 -11 5 -14 4 -16 -5 -7 -6 6 -8 16 -5 22 9 14 13 14 22 -1z m-50 -30
c4 -7 3 -8 -4 -4 -7 4 -12 3 -12 -3 0 -6 -8 -7 -17 -4 -16 6 -16 5 -4 -11 12
-15 12 -17 0 -14 -10 2 -13 -5 -11 -22 2 -20 0 -22 -8 -10 -8 13 -14 10 -34
-15 -13 -16 -21 -36 -18 -45 3 -8 2 -12 -2 -9 -10 9 -16 50 -7 44 5 -2 17 8
26 23 10 15 24 31 32 35 7 5 11 12 8 18 -5 7 11 18 42 28 1 1 5 -4 9 -11z
m547 -31 c3 -8 -1 -14 -9 -14 -15 0 -18 9 -7 20 9 9 10 9 16 -6z m202 -27 c-3
-5 -12 -10 -18 -10 -7 0 -6 4 3 10 19 12 23 12 15 0z m-380 -22 c5 4 5 1 1 -5
-4 -8 -1 -13 9 -13 10 0 13 5 9 13 -4 7 -3 9 2 4 5 -5 10 -13 10 -18 1 -5 2
-13 3 -19 0 -5 6 -10 12 -10 5 0 7 6 3 13 -4 6 -4 9 0 5 4 -3 7 -8 5 -10 -1
-1 3 -13 10 -26 8 -15 18 -21 27 -18 10 4 12 2 8 -6 -5 -8 -2 -9 11 -4 15 5
16 4 5 -9 -13 -16 -8 -19 25 -15 16 2 17 0 6 -14 -12 -14 -11 -16 4 -10 13 5
16 4 11 -4 -4 -8 -2 -10 7 -6 8 3 18 0 23 -7 5 -8 3 -10 -6 -4 -9 5 -11 4 -6
-3 4 -7 14 -12 22 -12 12 0 18 -11 16 -31 0 -3 13 -4 29 -3 16 1 26 -2 23 -7
-3 -5 -10 -6 -16 -3 -7 4 -8 2 -4 -4 4 -7 16 -12 27 -12 21 0 26 -15 7 -24 -7
-3 -3 -3 10 0 15 4 22 1 22 -10 0 -8 10 -18 22 -22 13 -4 29 -14 35 -23 12
-14 12 -14 7 4 -5 19 -4 19 8 -1 7 -12 21 -20 31 -18 9 1 15 -2 11 -7 -3 -5
-9 -7 -14 -4 -5 3 -12 0 -16 -6 -4 -8 -3 -9 4 -5 7 4 12 2 12 -4 0 -8 6 -7 21
1 13 7 19 7 15 1 -3 -6 -2 -13 4 -17 5 -3 10 -11 10 -17 0 -7 -5 -6 -15 2 -8
6 -19 9 -24 6 -5 -4 -12 -2 -16 4 -4 6 -11 8 -16 4 -5 -3 -7 -10 -4 -15 4 -5
1 -9 -6 -9 -7 0 -9 -3 -6 -6 4 -4 13 -1 22 6 8 7 15 8 15 3 0 -16 -22 -32 -39
-26 -13 4 -13 3 -2 -5 11 -8 10 -11 -4 -20 -17 -9 -17 -11 -1 -33 20 -30 20
-37 -1 -35 -18 1 -19 -4 -8 -39 6 -16 5 -17 -4 -5 -6 8 -11 11 -11 6 0 -5 -6
-4 -12 2 -14 11 -18 12 -45 12 -15 0 -16 2 -3 10 17 11 9 13 -14 4 -14 -5 -14
-9 -4 -22 12 -13 11 -14 -9 -2 -19 12 -20 15 -6 26 15 10 14 13 -5 29 -11 10
-18 23 -15 28 4 6 1 7 -6 2 -9 -5 -6 -14 11 -33 13 -14 18 -22 11 -18 -6 3
-16 -2 -22 -11 -6 -10 -11 -13 -11 -6 0 6 5 15 11 18 7 5 4 14 -7 26 -12 13
-20 16 -24 8 -5 -7 -9 -6 -13 4 -4 11 0 15 14 12 10 -2 19 0 19 5 0 13 -29 20
-36 9 -3 -5 -15 -7 -27 -3 -22 6 -22 6 1 -11 12 -9 22 -21 22 -26 0 -6 -7 -3
-16 5 -19 19 -31 21 -15 3 8 -10 7 -14 -4 -14 -8 0 -13 3 -11 6 2 3 0 15 -5
26 -6 17 -8 17 -8 3 -1 -10 -8 -18 -17 -18 -8 0 -12 -5 -9 -10 4 -6 11 -7 17
-4 7 4 8 2 4 -5 -4 -6 -12 -9 -17 -6 -8 5 -13 -7 -10 -27 0 -3 -6 -5 -15 -4
-8 1 -14 5 -14 9 0 4 0 13 0 20 0 8 4 7 11 -3 8 -12 10 -12 7 -1 -2 8 -11 15
-20 17 -11 1 -15 -3 -11 -12 8 -21 -20 -17 -34 5 -12 19 -10 20 27 18 22 -2
40 1 40 5 0 4 8 8 18 8 16 1 16 1 -1 14 -10 8 -28 12 -40 9 -22 -5 -22 -5 -2
11 20 17 20 17 -2 6 -15 -7 -20 -16 -17 -28 5 -14 3 -14 -10 2 -9 11 -16 14
-16 7 0 -7 -4 -9 -10 -6 -6 4 -7 -1 -3 -12 3 -10 3 -15 -2 -11 -14 13 -43 -11
-41 -35 3 -21 -1 -23 -50 -22 -41 0 -57 5 -69 20 -16 20 -16 19 -5 -2 13 -27
3 -30 -17 -5 -8 9 -12 12 -9 5 9 -18 -9 -24 -36 -13 -23 10 -23 10 0 6 12 -2
19 0 16 5 -3 5 -18 8 -32 7 -15 -1 -33 1 -40 6 -18 11 -14 -5 6 -21 15 -12 13
-12 -13 0 -16 8 -37 12 -45 10 -12 -4 -12 -3 -1 5 7 5 9 12 4 15 -5 4 -21 -1
-34 -11 -13 -9 -32 -15 -41 -14 -10 2 -26 -2 -37 -7 -14 -8 -22 -8 -27 1 -4 7
-3 8 4 4 11 -7 17 6 13 27 -1 5 3 6 9 2 6 -3 7 -11 4 -17 -4 -7 -2 -8 4 -4 9
5 9 13 1 28 -8 15 -8 19 0 14 6 -4 11 -1 11 6 0 10 3 9 9 -1 8 -12 11 -9 16
12 4 15 11 27 17 27 5 0 6 4 3 10 -4 6 1 7 11 3 12 -5 15 -3 9 6 -6 10 -2 11
16 6 15 -4 19 -3 11 3 -21 14 -3 44 22 36 18 -6 19 -5 9 8 -16 18 -5 32 13 17
10 -8 12 -5 8 16 -4 22 -2 26 12 21 11 -4 15 -2 11 8 -6 16 19 30 28 16 4 -6
12 -10 18 -9 9 0 9 2 0 6 -7 2 -13 9 -13 14 0 6 7 6 18 1 9 -5 24 -7 32 -5 10
3 8 -1 -4 -11 -21 -17 -18 -20 8 -10 9 3 16 11 16 18 0 6 9 17 21 24 12 8 18
9 14 3 -3 -6 -1 -11 5 -11 6 0 9 -4 6 -9 -7 -11 21 -8 31 4 4 4 2 5 -5 1 -25
-14 -24 23 2 51 14 15 23 29 20 32 -3 3 -9 -1 -14 -9 -6 -9 -10 -10 -10 -3 0
6 4 14 9 17 4 3 6 17 3 31 -4 26 14 59 28 50 5 -3 12 0 16 6 4 7 3 9 -3 6 -5
-3 -17 3 -26 14 -19 22 -15 24 16 7 20 -10 21 -10 8 5 -16 20 -2 23 19 5 8 -7
6 -3 -5 10 -18 21 -18 22 -1 16 17 -6 17 -5 6 17 -12 21 -11 22 2 12 8 -7 19
-9 23 -5z m380 -8 c3 -6 -1 -7 -9 -4 -18 7 -21 14 -7 14 6 0 13 -4 16 -10z
m435 -10 c0 -5 -5 -10 -11 -10 -5 0 -7 5 -4 10 3 6 8 10 11 10 2 0 4 -4 4 -10z
m-1325 -9 c-3 -5 -1 -12 5 -16 7 -4 7 -12 0 -24 -5 -10 -6 -21 -3 -25 3 -3 2
-6 -3 -6 -5 0 -15 10 -23 23 -13 20 -13 21 3 8 15 -13 17 -12 12 12 -2 14 -2
28 1 31 10 9 15 7 8 -3z m75 5 c0 -2 -7 -7 -16 -10 -8 -3 -12 -2 -9 4 6 10 25
14 25 6z m204 -4 c3 -5 -1 -9 -9 -9 -8 0 -12 4 -9 9 3 4 7 8 9 8 2 0 6 -4 9
-8z m726 -33 c0 -5 -4 -7 -10 -4 -5 3 -10 2 -10 -4 0 -5 6 -12 13 -14 9 -4 9
-6 0 -6 -15 -1 -26 16 -18 29 8 13 25 13 25 -1z m-1035 -39 c9 -16 13 -30 11
-30 -3 0 -12 14 -21 30 -9 17 -13 30 -11 30 3 0 12 -13 21 -30z m449 -11 c-15
-16 -23 -29 -17 -29 6 0 13 -7 16 -14 4 -10 1 -13 -8 -10 -21 8 -26 31 -9 44
19 17 18 31 -3 24 -14 -5 -15 -4 -4 4 8 6 21 8 29 4 11 -4 13 -1 7 8 -6 9 -4
11 4 5 9 -5 5 -15 -15 -36z m916 -5 c2 -3 -7 -4 -22 -2 -15 2 -30 7 -34 11 -3
3 6 4 22 1 16 -3 31 -7 34 -10z m-1396 -15 c-14 -15 -44 -16 -44 -2 0 3 7 2
16 -1 11 -4 15 -2 11 7 -3 7 3 13 14 13 17 0 17 -2 3 -17z m451 -38 c11 -14
14 -21 8 -17 -7 4 -13 2 -13 -3 0 -6 5 -11 10 -11 6 0 10 -5 10 -11 0 -8 -5
-7 -16 1 -13 11 -16 10 -21 -9 -4 -17 -8 -19 -14 -9 -7 10 -9 9 -9 -4 0 -9 -5
-20 -12 -24 -8 -5 -9 -2 -3 12 4 10 9 28 10 39 2 11 4 22 5 25 1 3 2 10 0 15
-1 6 4 4 11 -2 7 -7 17 -13 23 -13 6 0 5 5 -2 12 -7 7 -12 16 -12 22 0 5 1 7
3 5 1 -2 11 -15 22 -28z m-471 10 c19 -7 19 -8 -2 -13 -12 -4 -20 -2 -17 2 3
5 -1 11 -7 13 -7 3 -8 5 -3 6 6 0 19 -4 29 -8z m1246 -11 c0 -5 -4 -10 -10
-10 -5 0 -10 5 -10 10 0 6 5 10 10 10 6 0 10 -4 10 -10z m220 6 c0 -3 -4 -8
-10 -11 -5 -3 -10 -1 -10 4 0 6 5 11 10 11 6 0 10 -2 10 -4z m-1510 -26 c-10
-7 -11 -10 -2 -10 6 0 12 -5 12 -10 0 -6 -8 -5 -20 2 -11 7 -20 16 -20 21 0 4
4 6 9 2 5 -3 13 0 16 6 4 5 10 8 13 4 4 -3 0 -10 -8 -15z m1307 -5 c0 -8 -4
-12 -9 -9 -5 3 -6 10 -3 15 9 13 12 11 12 -6z m-865 -31 c-9 -16 -10 -14 -9 8
1 15 6 23 11 18 4 -4 4 -16 -2 -26z m-467 8 c15 -10 13 -28 -4 -44 -8 -7 -11
-8 -8 -2 4 7 0 15 -9 18 -11 4 -14 1 -9 -13 7 -23 -19 -36 -43 -21 -14 9 -12
10 8 4 14 -3 22 -3 18 1 -12 13 11 45 27 39 8 -4 15 -2 15 4 0 6 -6 13 -12 15
-7 3 -8 6 -3 6 6 0 15 -3 20 -7z m1259 -10 c3 -5 -1 -9 -9 -9 -8 0 -15 4 -15
9 0 4 4 8 9 8 6 0 12 -4 15 -8z m56 -2 c0 -5 -4 -10 -10 -10 -5 0 -10 5 -10
10 0 6 5 10 10 10 6 0 10 -4 10 -10z m-900 -20 c0 -5 -2 -10 -4 -10 -3 0 -8 5
-11 10 -3 6 -1 10 4 10 6 0 11 -4 11 -10z m45 -8 c-3 -3 -11 0 -18 7 -9 10 -8
11 6 5 10 -3 15 -9 12 -12z m-110 -1 c3 -5 2 -12 -3 -15 -5 -3 -9 1 -9 9 0 17
3 19 12 6z m906 -8 c13 -16 12 -17 -3 -4 -10 7 -18 15 -18 17 0 8 8 3 21 -13z
m-1309 -38 c16 0 16 -12 1 -12 -10 0 -21 4 -24 9 -3 5 -13 -6 -22 -24 -16 -34
-18 -55 -4 -50 5 1 6 -2 2 -8 -3 -6 -10 -8 -15 -5 -5 3 -16 -3 -26 -12 -17
-17 -17 -17 -11 -1 4 11 0 22 -11 28 -12 8 -12 10 -2 7 18 -5 50 10 50 24 0 6
-6 7 -12 4 -7 -4 -5 0 4 8 10 8 14 18 10 22 -4 5 -2 5 4 2 7 -4 15 0 18 9 4 9
11 12 18 7 7 -4 16 -8 20 -8z m1419 -18 c-10 -9 -11 -8 -5 6 3 10 9 15 12 12
3 -3 0 -11 -7 -18z m-1448 -22 c-3 -9 -8 -14 -10 -11 -3 3 -2 9 2 15 9 16 15
13 8 -4z m-63 -5 c0 -5 -5 -10 -11 -10 -5 0 -7 5 -4 10 3 6 8 10 11 10 2 0 4
-4 4 -10z m1290 -41 c-9 -15 -8 -17 7 -12 10 4 21 10 24 15 3 5 12 2 19 -7 11
-13 10 -15 -6 -9 -15 6 -17 4 -7 -6 7 -7 34 -14 60 -14 46 -1 48 -2 48 -31 0
-24 -4 -29 -19 -27 -11 2 -15 -1 -11 -7 3 -6 -4 -15 -17 -20 -13 -6 -17 -10
-10 -10 10 -1 10 -4 0 -15 -7 -8 -16 -12 -20 -9 -5 2 -8 -3 -8 -11 0 -9 -5
-16 -11 -16 -5 0 -8 4 -4 9 3 5 0 13 -6 17 -7 4 -9 3 -6 -3 9 -15 -14 -31 -38
-27 -11 1 -25 11 -32 20 -12 16 -17 12 -14 -8 2 -13 -17 -9 -23 5 -5 10 -7 10
-12 0 -3 -7 -10 -13 -16 -13 -6 0 -6 6 2 15 10 12 10 15 -3 15 -9 0 -19 5 -23
11 -4 8 0 9 15 4 25 -8 28 10 7 40 -13 18 -11 23 14 49 19 18 33 25 42 20 9
-5 8 -2 -2 11 -13 16 -13 18 0 13 18 -6 20 -34 3 -30 -7 1 -13 -3 -13 -9 0 -5
-5 -7 -12 -3 -6 4 -8 3 -5 -4 4 -5 16 -8 27 -5 12 3 20 0 20 -6 0 -7 -5 -9
-10 -6 -6 3 -13 -1 -17 -10 -5 -16 -7 -16 -15 -1 -10 17 -28 13 -28 -7 0 -7 4
-6 11 3 8 12 9 10 4 -7 -7 -25 4 -30 23 -11 23 23 21 1 -3 -24 -23 -25 -23
-27 -5 -25 12 1 18 7 16 14 -3 7 1 10 9 6 8 -3 12 -10 8 -17 -4 -7 -1 -7 9 1
8 7 18 10 22 6 4 -4 4 1 0 11 -6 16 -3 17 17 11 18 -5 21 -4 9 4 -13 10 -8 15
12 12 4 0 5 6 2 14 -4 8 -1 15 5 15 6 0 11 -4 11 -8 0 -5 7 -9 16 -9 14 0 14
2 -2 14 -18 13 -9 18 26 13 8 -1 12 1 8 5 -9 9 -58 14 -53 5 6 -10 -21 -21
-29 -13 -3 3 2 12 12 20 9 8 11 11 3 7 -9 -5 -12 -3 -7 4 5 8 2 10 -8 6 -9 -3
-13 -10 -10 -15 3 -5 0 -9 -5 -9 -12 0 -13 4 -15 49 -1 19 3 27 11 24 9 -4 10
-10 3 -24z m-1350 -29 c0 -5 -5 -10 -11 -10 -5 0 -7 5 -4 10 3 6 8 10 11 10 2
0 4 -4 4 -10z m38 -15 c-1 -14 -5 -25 -9 -25 -10 0 -20 30 -13 41 11 18 24 9
22 -16z m1308 -60 c-14 -13 -26 -19 -26 -14 0 6 -6 7 -12 3 -10 -6 -10 -5 -1
7 10 12 10 18 0 28 -9 10 -9 12 3 9 10 -2 14 4 13 19 -2 21 -2 21 24 -3 l26
-24 -27 -25z m-1337 33 c9 -14 8 -17 -1 -16 -7 2 -12 -4 -10 -12 3 -11 0 -12
-8 -4 -6 6 -12 20 -14 31 -5 25 17 26 33 1z m-29 -50 c0 -4 -5 -8 -11 -8 -5 0
-7 5 -4 10 3 6 -1 10 -9 10 -18 0 -21 -16 -5 -25 6 -5 2 -13 -11 -22 -19 -13
-24 -13 -31 -2 -11 18 -5 35 11 31 8 -2 10 3 6 13 -3 9 -2 14 3 11 5 -3 12 2
16 12 6 16 7 16 21 -2 8 -11 14 -23 14 -28z m910 -16 c13 -11 12 -12 -5 -8
-51 11 -67 19 -53 27 10 7 10 9 -2 9 -13 0 -13 1 0 10 11 6 19 4 30 -8 8 -9
22 -23 30 -30z m180 13 c-5 -7 -8 -14 -5 -17 3 -2 -10 -5 -28 -5 -20 0 -34 5
-34 13 0 8 11 11 29 8 16 -1 26 0 24 5 -3 4 1 8 9 8 10 0 12 -4 5 -12z m-1213
-124 c0 -11 -5 -18 -9 -15 -4 3 -5 11 -1 19 7 21 12 19 10 -4z m-447 -365 c0
-2 -7 -7 -16 -10 -8 -3 -12 -2 -9 4 6 10 25 14 25 6z m-179 -319 c-10 -9 -11
-8 -5 6 3 10 9 15 12 12 3 -3 0 -11 -7 -18z m-136 -146 c3 -5 2 -12 -3 -15 -5
-3 -9 1 -9 9 0 17 3 19 12 6z m-30 -41 c-3 -5 -12 -10 -18 -10 -7 0 -6 4 3 10
19 12 23 12 15 0z m-125 -134 c0 -3 -4 -8 -10 -11 -5 -3 -10 -1 -10 4 0 6 5
11 10 11 6 0 10 -2 10 -4z m-60 -70 c0 -2 -6 -9 -14 -15 -11 -9 -16 -9 -22 0
-4 7 -3 9 4 5 6 -3 13 -2 17 4 6 10 15 14 15 6z m-200 -76 c0 -5 -5 -10 -11
-10 -5 0 -7 5 -4 10 3 6 8 10 11 10 2 0 4 -4 4 -10z m93 -45 c-3 -9 -8 -14
-10 -11 -3 3 -2 9 2 15 9 16 15 13 8 -4z m-149 -153 c3 -5 -1 -9 -9 -9 -8 0
-12 4 -9 9 3 4 7 8 9 8 2 0 6 -4 9 -8z m1317 -205 l-24 -22 19 27 c10 14 21
24 23 22 3 -3 -6 -15 -18 -27z m-1587 -95 c3 -5 -1 -9 -9 -9 -8 0 -12 4 -9 9
3 4 7 8 9 8 2 0 6 -4 9 -8z m-50 -60 c3 -5 -1 -9 -9 -9 -8 0 -12 4 -9 9 3 4 7
8 9 8 2 0 6 -4 9 -8z m-44 -62 c0 -5 -5 -10 -11 -10 -5 0 -7 5 -4 10 3 6 8 10
11 10 2 0 4 -4 4 -10z m-390 -414 c0 -2 -8 -10 -17 -17 -16 -13 -17 -12 -4 4
13 16 21 21 21 13z m-150 -160 c0 -2 -7 -7 -16 -10 -8 -3 -12 -2 -9 4 6 10 25
14 25 6z m-75 -786 c3 -5 1 -10 -4 -10 -6 0 -11 5 -11 10 0 6 2 10 4 10 3 0 8
-4 11 -10z m655 -94 c0 -3 -4 -8 -10 -11 -5 -3 -10 -1 -10 4 0 6 5 11 10 11 6
0 10 -2 10 -4z"/>
<path d="M4045 4700 c-4 -6 -10 -8 -15 -5 -16 10 -20 -13 -5 -25 8 -7 16 -10
16 -6 1 3 2 9 3 14 1 4 5 13 9 20 5 6 6 12 3 12 -3 0 -8 -5 -11 -10z"/>
<path d="M4086 4655 c-9 -26 -7 -32 5 -12 6 10 9 21 6 23 -2 3 -7 -2 -11 -11z"/>
<path d="M4147 4626 c-4 -10 -1 -13 8 -9 8 3 12 9 9 14 -7 12 -11 11 -17 -5z"/>
<path d="M4345 4400 c-3 -6 1 -7 9 -4 18 7 21 14 7 14 -6 0 -13 -4 -16 -10z"/>
<path d="M4385 4340 c4 -6 11 -8 16 -5 14 9 11 15 -7 15 -8 0 -12 -5 -9 -10z"/>
<path d="M4450 4306 c0 -2 7 -7 16 -10 8 -3 12 -2 9 4 -6 10 -25 14 -25 6z"/>
<path d="M4506 4202 c-3 -6 3 -16 14 -22 11 -6 18 -15 15 -21 -10 -15 1 -10
15 7 8 9 9 14 2 12 -6 -2 -17 6 -25 16 -9 13 -16 15 -21 8z"/>
<path d="M3990 4451 c0 -6 4 -12 8 -15 5 -3 9 1 9 9 0 8 -4 15 -9 15 -4 0 -8
-4 -8 -9z"/>
<path d="M4030 4456 c0 -2 8 -10 18 -17 15 -13 16 -12 3 4 -13 16 -21 21 -21
13z"/>
<path d="M3920 4423 c0 -6 9 -18 20 -26 11 -8 18 -16 15 -19 -3 -2 2 -5 12 -5
13 0 11 4 -7 19 -20 16 -19 23 3 19 4 0 7 4 7 9 0 13 -17 13 -26 -1 -4 -8 -9
-7 -15 2 -6 10 -9 10 -9 2z"/>
<path d="M4120 4420 c0 -5 5 -10 11 -10 5 0 7 5 4 10 -3 6 -8 10 -11 10 -2 0
-4 -4 -4 -10z"/>
<path d="M4006 4405 c-11 -8 -15 -15 -9 -15 6 0 16 7 23 15 16 19 11 19 -14 0z"/>
<path d="M3875 4360 c-3 -6 1 -7 9 -4 18 7 21 14 7 14 -6 0 -13 -4 -16 -10z"/>
<path d="M3949 4343 c-13 -16 -12 -17 4 -4 9 7 17 15 17 17 0 8 -8 3 -21 -13z"/>
<path d="M3966 4322 c-3 -5 1 -9 9 -9 8 0 15 4 15 9 0 4 -4 8 -9 8 -6 0 -12
-4 -15 -8z"/>
<path d="M4184 4306 c3 -10 2 -24 -3 -30 -6 -7 -4 -18 5 -30 11 -16 16 -17 27
-7 10 10 9 12 -2 9 -7 -2 -15 5 -16 15 -3 17 -2 17 14 3 12 -11 20 -13 28 -5
8 8 13 8 18 0 3 -6 1 -10 -6 -9 -6 2 -14 -3 -16 -10 -3 -7 1 -11 9 -10 7 2 12
-5 12 -14 -1 -9 4 -19 11 -22 16 -6 13 48 -4 67 -6 8 -8 17 -4 21 4 4 0 4 -10
0 -10 -3 -17 -1 -17 5 0 6 -5 11 -11 11 -5 0 -7 -6 -4 -12 4 -7 -4 -2 -16 12
-17 19 -21 20 -15 6z"/>
<path d="M4276 4267 c3 -10 9 -15 12 -12 3 3 0 11 -7 18 -10 9 -11 8 -5 -6z"/>
<path d="M4079 4183 c-11 -15 -11 -16 1 -5 20 17 35 15 20 -3 -7 -9 -10 -18
-6 -22 3 -3 6 -1 6 5 0 7 7 12 15 12 20 0 19 16 -1 24 -21 8 -20 8 -35 -11z"/>
<path d="M4168 4083 c2 -13 9 -23 14 -23 5 0 6 5 3 10 -4 6 -2 16 4 23 7 9 5
13 -8 13 -13 0 -16 -6 -13 -23z"/>
<path d="M4342 4089 c2 -8 -3 -13 -10 -11 -8 1 -11 -2 -7 -8 8 -13 18 -13 36
3 8 6 12 11 10 10 -2 -2 -10 2 -18 9 -11 9 -13 8 -11 -3z"/>
<path d="M4282 4058 c-15 -15 -15 -28 0 -28 6 0 8 3 5 7 -4 3 -2 12 4 20 14
16 7 17 -9 1z"/>
<path d="M3775 4160 c-3 -6 1 -7 9 -4 18 7 21 14 7 14 -6 0 -13 -4 -16 -10z"/>
<path d="M3686 4077 c3 -10 9 -15 12 -12 3 3 0 11 -7 18 -10 9 -11 8 -5 -6z"/>
<path d="M3753 4065 c0 -8 4 -12 9 -9 5 3 6 10 3 15 -9 13 -12 11 -12 -6z"/>
<path d="M3676 3998 c3 -5 10 -6 15 -3 13 9 11 12 -6 12 -8 0 -12 -4 -9 -9z"/>
<path d="M3605 3961 c-3 -5 -2 -12 3 -15 5 -3 9 1 9 9 0 17 -3 19 -12 6z"/>
<path d="M3990 3945 c0 -5 5 -17 10 -25 5 -8 10 -10 10 -5 0 6 -5 17 -10 25
-5 8 -10 11 -10 5z"/>
<path d="M3514 3909 c-3 -6 -2 -15 3 -20 5 -5 9 -1 9 11 0 23 -2 24 -12 9z"/>
<path d="M3555 3889 c-4 -6 -5 -12 -2 -15 2 -3 7 2 10 11 7 17 1 20 -8 4z"/>
<path d="M4053 3873 c0 -9 4 -10 14 -2 7 6 13 12 13 14 0 1 -6 2 -13 2 -8 0
-14 -6 -14 -14z"/>
<path d="M4090 3881 c0 -4 11 -8 25 -9 14 -1 25 2 25 6 0 4 -11 8 -25 8 -14 1
-25 -1 -25 -5z"/>
<path d="M3973 3849 c-2 -23 3 -25 10 -4 4 8 3 16 -1 19 -4 3 -9 -4 -9 -15z"/>
<path d="M3994 3806 c1 -8 5 -18 8 -22 4 -3 5 1 4 10 -1 8 -5 18 -8 22 -4 3
-5 -1 -4 -10z"/>
<path d="M4063 3805 c-10 -8 -14 -15 -9 -15 6 0 1 -6 -9 -14 -11 -8 -23 -12
-27 -10 -5 3 -8 1 -8 -5 0 -5 9 -9 19 -8 11 0 18 4 15 8 -2 4 3 10 12 13 8 3
13 10 10 15 -3 5 1 11 9 15 17 6 30 -10 15 -17 -6 -3 -5 -4 2 -3 18 3 21 23 4
29 -8 3 -22 -1 -33 -8z"/>
<path d="M3470 3801 c0 -6 4 -13 10 -16 6 -3 7 1 4 9 -7 18 -14 21 -14 7z"/>
<path d="M3411 3787 c-6 -6 -11 -7 -11 -2 0 5 -7 -1 -16 -13 -8 -12 -20 -20
-25 -17 -5 4 -9 1 -9 -4 0 -6 5 -11 11 -11 5 0 8 -4 4 -10 -3 -5 -13 -7 -23
-4 -14 5 -14 4 -2 -4 15 -11 44 3 35 17 -2 4 14 7 35 7 34 0 37 -2 28 -16 -10
-12 -10 -13 2 -3 10 9 19 9 34 1 12 -6 18 -7 14 -3 -4 5 -3 14 3 21 15 18 -63
58 -80 41z m14 -7 c-3 -5 -1 -10 6 -10 18 0 5 -10 -20 -15 -26 -5 -27 3 -3 21
21 16 25 17 17 4z m56 -28 c-7 -2 -18 1 -23 6 -8 8 -4 9 13 5 13 -4 18 -8 10
-11z"/>
<path d="M4090 3763 c0 -6 -9 -13 -21 -16 -17 -5 -19 -9 -10 -25 6 -11 8 -22
6 -26 -3 -3 -2 -4 2 -1 3 3 13 -1 22 -8 14 -10 14 -10 3 5 -11 14 -10 18 7 30
17 12 17 16 5 33 -8 10 -14 14 -14 8z m0 -38 c-11 -13 -15 -13 -21 -3 -5 8 -2
15 9 19 23 9 27 3 12 -16z"/>
<path d="M3596 4041 c-4 -5 -2 -12 3 -15 5 -4 12 -2 15 3 4 5 2 12 -3 15 -5 4
-12 2 -15 -3z"/>
<path d="M4210 3681 c0 -5 7 -11 14 -14 10 -4 13 -1 9 9 -6 15 -23 19 -23 5z"/>
<path d="M4219 3766 c0 -1 -2 -9 -4 -18 -3 -14 0 -15 16 -5 23 14 24 24 4 24
-8 0 -15 -1 -16 -1z"/>
<path d="M2802 3698 c2 -5 8 -9 13 -9 5 0 11 4 13 9 1 5 -4 9 -13 9 -9 0 -14
-4 -13 -9z"/>
<path d="M3740 3720 c6 -11 13 -20 16 -20 2 0 0 9 -6 20 -6 11 -13 20 -16 20
-2 0 0 -9 6 -20z"/>
<path d="M3460 4760 c0 -5 5 -10 11 -10 5 0 7 5 4 10 -3 6 -8 10 -11 10 -2 0
-4 -4 -4 -10z"/>
<path d="M4792 4631 c-7 -4 -26 -7 -43 -6 -28 2 -28 1 -12 -17 9 -10 18 -16
21 -13 3 2 13 0 23 -6 15 -8 21 -6 26 6 5 13 7 14 14 3 7 -10 9 -11 9 0 0 8 5
10 13 6 7 -4 9 -3 4 2 -5 5 -13 10 -18 10 -5 1 -14 2 -20 3 -5 0 -7 6 -4 11 7
12 4 12 -13 1z"/>
<path d="M4695 4600 c3 -5 -3 -13 -12 -19 -10 -6 -13 -11 -6 -11 15 0 10 -29
-7 -40 -10 -6 -9 -14 8 -35 12 -15 19 -32 15 -38 -3 -5 -1 -7 5 -3 6 3 13 2
16 -3 4 -5 18 -8 31 -5 14 2 25 0 25 -6 0 -18 20 -11 51 20 18 16 35 28 39 25
4 -2 7 20 7 49 0 52 -1 53 -28 52 -20 0 -27 -6 -26 -18 1 -18 17 -26 17 -9 0
5 7 12 16 15 14 5 15 4 4 -9 -7 -8 -9 -15 -4 -15 5 0 3 -4 -5 -9 -9 -6 -24 -6
-38 0 -16 6 -22 5 -18 -1 3 -6 12 -10 18 -10 16 0 19 -37 4 -37 -7 0 -19 -2
-27 -4 -8 -2 -14 2 -12 9 1 8 -2 11 -7 8 -5 -4 -12 2 -14 11 -4 17 -5 17 -6 1
-1 -11 -6 -15 -16 -12 -21 8 -19 34 3 35 15 0 14 1 -3 8 -18 7 -18 8 -1 18 11
6 28 8 40 6 12 -2 5 4 -14 13 -42 20 -62 25 -55 14z m24 -21 c-22 -14 -33 -10
-19 6 7 8 17 12 22 9 6 -4 5 -10 -3 -15z m-19 -44 c-6 -7 -7 -21 -3 -31 6 -17
5 -17 -10 -5 -16 12 -16 16 -2 31 8 9 12 20 8 25 -5 4 -2 5 5 1 9 -6 10 -11 2
-21z m160 -14 c0 -10 -28 -41 -37 -41 -3 0 2 9 12 20 18 20 18 21 0 14 -13 -5
-16 -4 -11 4 9 14 36 16 36 3z m-100 -36 c19 -12 33 -13 41 -2 3 5 9 2 12 -7
4 -10 -1 -20 -13 -26 -15 -8 -18 -7 -15 3 4 9 -5 13 -30 14 -23 0 -33 -3 -28
-11 4 -6 -1 -5 -9 2 -35 28 3 52 42 27z"/>
<path d="M4777 4519 c7 -7 15 -10 18 -7 3 3 -2 9 -12 12 -14 6 -15 5 -6 -5z"/>
<path d="M4781 4383 c-1 -7 -7 -10 -14 -7 -8 3 -14 -2 -14 -11 0 -11 6 -15 19
-12 10 3 18 0 18 -5 0 -6 8 -17 18 -24 11 -9 13 -13 4 -14 -7 0 -10 -4 -7 -10
3 -5 -3 -10 -14 -10 -11 0 -23 5 -26 11 -7 11 -34 -17 -35 -36 0 -5 5 -3 10 5
8 13 10 12 10 -3 0 -14 6 -16 28 -11 15 3 33 6 39 6 10 1 10 4 0 17 -10 12 -9
14 6 8 11 -4 16 -3 12 3 -3 6 0 10 7 10 10 0 10 2 0 9 -8 4 -13 11 -13 15 3
21 -1 27 -14 22 -20 -7 -19 4 1 19 15 11 15 12 0 12 -9 0 -16 -5 -17 -11 0 -6
-4 -2 -9 9 -5 11 -9 15 -9 8z m-6 -103 c3 -5 13 -6 23 -3 9 3 14 3 11 -1 -9
-10 -50 -16 -44 -6 3 4 -1 11 -7 13 -9 4 -10 6 -1 6 6 1 14 -3 18 -9z"/>
<path d="M4715 4340 c-3 -5 -1 -10 6 -10 9 0 9 -3 0 -14 -9 -10 -9 -16 -1 -21
7 -4 14 2 17 14 3 12 10 18 17 14 6 -4 5 1 -3 10 -15 19 -27 22 -36 7z"/>
<path d="M4770 4325 c0 -8 4 -15 10 -15 5 0 7 7 4 15 -4 8 -8 15 -10 15 -2 0
-4 -7 -4 -15z"/>
<path d="M2173 3125 c0 -8 4 -12 9 -9 5 3 6 10 3 15 -9 13 -12 11 -12 -6z"/>
<path d="M3691 2924 c0 -11 3 -14 6 -6 3 7 2 16 -1 19 -3 4 -6 -2 -5 -13z"/>
<path d="M3625 2871 c-3 -5 -2 -12 3 -15 5 -3 9 1 9 9 0 17 -3 19 -12 6z"/>
<path d="M380 1089 c0 -5 5 -7 10 -4 6 3 10 8 10 11 0 2 -4 4 -10 4 -5 0 -10
-5 -10 -11z"/>
</g>
</svg>
